<svg id="Capa_1" data-name="Capa 1" xmlns="http://www.w3.org/2000/svg" viewBox="0 0 311 70"><defs><style>.cls-1{fill:#fff;}.cls-2{fill:#ea5d26;}</style></defs><circle class="cls-1" cx="186.41" cy="22.56" r="22.26"/><path class="cls-1" d="M26.12,10H15.35V42.31H11V10H.25V6.16H26.12Z"/><path class="cls-1" d="M51.72,42.31H32V6.16H50.89V10H36.33V22H49.8v3.81H36.33V38.48H51.72Z"/><path class="cls-1" d="M86.26,42.31h-5.2L74.83,32.18a23.63,23.63,0,0,0-1.67-2.41,9.63,9.63,0,0,0-1.65-1.62,5.68,5.68,0,0,0-1.82-.92,7.47,7.47,0,0,0-2.2-.29H63.91V42.31H59.54V6.16H70.67a16.13,16.13,0,0,1,4.51.6,10.06,10.06,0,0,1,3.58,1.8,8.28,8.28,0,0,1,2.38,3A9.75,9.75,0,0,1,82,15.79a9.91,9.91,0,0,1-.58,3.47,9,9,0,0,1-1.67,2.81,10,10,0,0,1-2.6,2.11,13.4,13.4,0,0,1-3.42,1.34v.11a7.62,7.62,0,0,1,1.63.91,8.86,8.86,0,0,1,1.31,1.23,15.6,15.6,0,0,1,1.24,1.6c.4.6.86,1.29,1.36,2.08ZM63.91,10V23.1h5.92a9.17,9.17,0,0,0,3-.48,6.89,6.89,0,0,0,2.41-1.37,6.35,6.35,0,0,0,1.58-2.19,7.2,7.2,0,0,0,.57-2.91,5.59,5.59,0,0,0-1.93-4.53A8.52,8.52,0,0,0,69.89,10Z"/><path class="cls-1" d="M117.46,42.31h-5.2L106,32.18a22.16,22.16,0,0,0-1.66-2.41,9.63,9.63,0,0,0-1.65-1.62,5.68,5.68,0,0,0-1.82-.92,7.47,7.47,0,0,0-2.2-.29H95.11V42.31H90.74V6.16h11.12a16.2,16.2,0,0,1,4.52.6A10.06,10.06,0,0,1,110,8.56a8.28,8.28,0,0,1,2.38,3,9.75,9.75,0,0,1,.86,4.22,9.91,9.91,0,0,1-.59,3.47A8.93,8.93,0,0,1,111,22.07a10.19,10.19,0,0,1-2.6,2.11,13.4,13.4,0,0,1-3.42,1.34v.11a7.62,7.62,0,0,1,1.63.91,9.39,9.39,0,0,1,1.31,1.23,14.28,14.28,0,0,1,1.23,1.6c.41.6.87,1.29,1.37,2.08ZM95.11,10V23.1H101a9.25,9.25,0,0,0,3-.48,6.89,6.89,0,0,0,2.41-1.37,6.35,6.35,0,0,0,1.58-2.19,7.2,7.2,0,0,0,.57-2.91,5.59,5.59,0,0,0-1.93-4.53,8.52,8.52,0,0,0-5.6-1.62Z"/><path class="cls-1" d="M126,42.31h-4.37V6.16H126Z"/><path class="cls-1" d="M157.73,10H147V42.31H142.6V10H131.86V6.16h25.87Z"/><path class="cls-1" d="M241.57,42.48h-5.11l-6.13-10.23a21.68,21.68,0,0,0-1.64-2.43,9.69,9.69,0,0,0-1.62-1.64,5.89,5.89,0,0,0-1.79-.93,7.58,7.58,0,0,0-2.16-.29h-3.53V42.48H215.3V6h10.94a15.56,15.56,0,0,1,4.43.6,10,10,0,0,1,3.53,1.82,8.47,8.47,0,0,1,2.34,3,10.09,10.09,0,0,1,.84,4.26,10.28,10.28,0,0,1-.57,3.5,9.22,9.22,0,0,1-1.64,2.84,9.94,9.94,0,0,1-2.55,2.12,13.22,13.22,0,0,1-3.37,1.37v.1a7.4,7.4,0,0,1,1.6.93,8.72,8.72,0,0,1,1.29,1.23,15.9,15.9,0,0,1,1.22,1.62c.4.6.84,1.3,1.34,2.1Zm-22-32.62V23.09h5.83a9,9,0,0,0,3-.48,6.71,6.71,0,0,0,2.36-1.39A6.16,6.16,0,0,0,232.32,19a7.27,7.27,0,0,0,.56-2.94A5.72,5.72,0,0,0,231,11.5a8.24,8.24,0,0,0-5.51-1.64Z"/><path class="cls-1" d="M250.35,42.48h-4.3V6h4.3Z"/><path class="cls-1" d="M287.47,42.48h-4.76l-3.88-10.23H263.29l-3.66,10.23h-4.78L268.91,6h4.45ZM277.42,28.41l-5.75-15.55a14.6,14.6,0,0,1-.56-2.44H271a13.42,13.42,0,0,1-.59,2.44l-5.7,15.55Z"/><path class="cls-1" d="M310.65,41.94h-19V5.45h4.29V38.08h14.72Z"/><path class="cls-2" d="M173.3,40.63a22,22,0,0,0,2.46,1.59V24.88l-2.46,1.6Z"/><path class="cls-2" d="M186.51,0a22.41,22.41,0,0,0-21,30.29l6.74-4.4v-16l21.93,10.92V43.6A22.46,22.46,0,0,0,186.51,0Z"/><path class="cls-2" d="M172.2,27.2l-6.35,4.13a22.43,22.43,0,0,0,6.35,8.48Z"/><path class="cls-2" d="M193,43.82V21.47L173.3,11.64V25.18l3.56-2.32V42.75A22.18,22.18,0,0,0,193,44Z"/><path class="cls-1" d="M310.65,53.25H193V44a9,9,0,0,0,1.1-.38v8.55H310.65Z"/><path class="cls-1" d="M225.17,60a.78.78,0,0,1-.56-.22.72.72,0,0,1-.22-.55.75.75,0,0,1,.22-.56.78.78,0,0,1,.56-.22.79.79,0,0,1,.56.22.75.75,0,0,1,.23.56.76.76,0,0,1-.23.55A.79.79,0,0,1,225.17,60Zm.58,9.38h-1.2V61.86h1.2Z"/><path class="cls-1" d="M234.43,69.34h-1.21V65.08c0-1.59-.58-2.38-1.74-2.38a1.92,1.92,0,0,0-1.5.67,2.52,2.52,0,0,0-.59,1.71v4.26h-1.2V61.86h1.2V63.1h0a2.72,2.72,0,0,1,2.47-1.41,2.28,2.28,0,0,1,1.88.79,3.49,3.49,0,0,1,.66,2.29Z"/><path class="cls-1" d="M247.37,69.34h-1.21V65.05a3.3,3.3,0,0,0-.38-1.8,1.47,1.47,0,0,0-1.3-.55,1.6,1.6,0,0,0-1.31.7,2.64,2.64,0,0,0-.54,1.68v4.26h-1.2V64.9c0-1.47-.57-2.2-1.71-2.2a1.59,1.59,0,0,0-1.31.66,2.73,2.73,0,0,0-.51,1.72v4.26h-1.2V61.86h1.2v1.19h0a2.54,2.54,0,0,1,2.33-1.36,2.18,2.18,0,0,1,1.34.42,2.11,2.11,0,0,1,.79,1.13,2.68,2.68,0,0,1,2.5-1.55c1.65,0,2.48,1,2.48,3Z"/><path class="cls-1" d="M252.78,69.52a3.5,3.5,0,0,1-2.66-1,3.89,3.89,0,0,1-1-2.78,4,4,0,0,1,1-2.94,3.72,3.72,0,0,1,2.8-1.06,3.36,3.36,0,0,1,2.62,1,4.05,4.05,0,0,1,.95,2.85,4,4,0,0,1-1,2.87A3.58,3.58,0,0,1,252.78,69.52Zm.09-6.82a2.3,2.3,0,0,0-1.83.78,3.17,3.17,0,0,0-.68,2.17,3.06,3.06,0,0,0,.68,2.09,2.35,2.35,0,0,0,1.83.77,2.22,2.22,0,0,0,1.8-.75,4,4,0,0,0,0-4.3A2.2,2.2,0,0,0,252.87,62.7Z"/><path class="cls-1" d="M259.68,68.26h0v1.08h-1.2V58.27h1.2v4.91h0a2.84,2.84,0,0,1,2.6-1.49,2.75,2.75,0,0,1,2.26,1,4.11,4.11,0,0,1,.82,2.69,4.59,4.59,0,0,1-.92,3,3.06,3.06,0,0,1-2.51,1.13A2.47,2.47,0,0,1,259.68,68.26Zm0-3v1.05a2.18,2.18,0,0,0,.61,1.57,2,2,0,0,0,1.53.65,2,2,0,0,0,1.72-.83,3.85,3.85,0,0,0,.62-2.32,3.07,3.07,0,0,0-.58-2,1.93,1.93,0,0,0-1.57-.7,2.16,2.16,0,0,0-1.69.72A2.65,2.65,0,0,0,259.65,65.24Z"/><path class="cls-1" d="M267.9,60a.77.77,0,0,1-.78-.77.75.75,0,0,1,.23-.56.74.74,0,0,1,.55-.22.76.76,0,0,1,.56.22.72.72,0,0,1,.23.56.73.73,0,0,1-.23.55A.76.76,0,0,1,267.9,60Zm.59,9.38h-1.21V61.86h1.21Z"/><path class="cls-1" d="M272.13,69.34h-1.21V58.27h1.21Z"/><path class="cls-1" d="M275.18,60a.77.77,0,0,1-.78-.77.75.75,0,0,1,.23-.56.74.74,0,0,1,.55-.22.76.76,0,0,1,.56.22.72.72,0,0,1,.23.56.73.73,0,0,1-.23.55A.76.76,0,0,1,275.18,60Zm.59,9.38h-1.21V61.86h1.21Z"/><path class="cls-1" d="M283.58,69.34h-1.2V68.17h0a2.75,2.75,0,0,1-4.07.76,2.06,2.06,0,0,1-.63-1.57c0-1.4.82-2.22,2.48-2.44l2.25-.32c0-1.27-.52-1.9-1.55-1.9a3.69,3.69,0,0,0-2.45.92V62.39a4.65,4.65,0,0,1,2.55-.7c1.77,0,2.65.93,2.65,2.79Zm-1.2-3.78-1.81.25a2.78,2.78,0,0,0-1.26.41,1.18,1.18,0,0,0-.43,1,1.14,1.14,0,0,0,.39.89,1.53,1.53,0,0,0,1.05.35,1.93,1.93,0,0,0,1.48-.63,2.2,2.2,0,0,0,.58-1.58Z"/><path class="cls-1" d="M289.77,63.08a1.41,1.41,0,0,0-.91-.25,1.56,1.56,0,0,0-1.29.73,3.36,3.36,0,0,0-.51,2v3.81h-1.21V61.86h1.21V63.4h0a2.76,2.76,0,0,1,.79-1.23,1.82,1.82,0,0,1,1.18-.44,1.94,1.94,0,0,1,.72.1Z"/><path class="cls-1" d="M291.69,60a.75.75,0,0,1-.55-.22.72.72,0,0,1-.22-.55.75.75,0,0,1,.22-.56.75.75,0,0,1,.55-.22.8.8,0,0,1,.57.22.75.75,0,0,1,.23.56.76.76,0,0,1-.23.55A.8.8,0,0,1,291.69,60Zm.59,9.38h-1.2V61.86h1.2Z"/><path class="cls-1" d="M300.1,69.34h-1.21V68.17h0a2.75,2.75,0,0,1-4.07.76,2.06,2.06,0,0,1-.63-1.57c0-1.4.83-2.22,2.48-2.44l2.25-.32c0-1.27-.51-1.9-1.55-1.9a3.69,3.69,0,0,0-2.45.92V62.39a4.66,4.66,0,0,1,2.56-.7c1.76,0,2.65.93,2.65,2.79Zm-1.21-3.78-1.81.25a2.78,2.78,0,0,0-1.26.41,1.18,1.18,0,0,0-.43,1,1.12,1.12,0,0,0,.4.89,1.52,1.52,0,0,0,1,.35,1.93,1.93,0,0,0,1.48-.63,2.2,2.2,0,0,0,.58-1.58Z"/></svg>