<svg width="1645" height="320" viewBox="0 0 1645 320" fill="none" xmlns="http://www.w3.org/2000/svg">
<path d="M1546.07 86.0574H1577.25V203.672H1644.85V233.616H1546.07V86.0574Z" fill="#F16016"/>
<path d="M1499.56 233.616L1490.3 208.92H1433.39L1423.93 233.616H1390.79L1449.44 86.0574H1474.66L1533.51 233.616H1499.56ZM1443.68 182.166H1480.01L1462.1 135.038L1443.68 182.166Z" fill="#F16016"/>
<path d="M1347.26 86.0574H1378.44V233.616H1347.26V86.0574Z" fill="#F16016"/>
<path d="M1335.83 233.616H1297.86L1264.52 177.33H1248.57V233.616H1217.4V86.0574H1274.3C1282.53 86.0574 1290.21 88.0811 1297.35 92.1285C1304.48 96.1759 1310.18 101.733 1314.43 108.798C1318.68 115.796 1320.81 123.41 1320.81 131.642C1320.81 140.972 1318.72 149.204 1314.53 156.338C1310.35 163.473 1304.59 168.858 1297.25 172.494L1335.83 233.616ZM1248.57 116.207V150.37H1271.11C1276.19 150.37 1280.47 148.724 1283.97 145.431C1287.47 142.138 1289.22 138.022 1289.22 133.083C1289.22 128.349 1287.47 124.371 1283.97 121.146C1280.47 117.854 1276.19 116.207 1271.11 116.207H1248.57Z" fill="#F16016"/>
<path d="M1085.28 93.8784C1096.8 87.2927 1109.63 83.9999 1123.76 83.9999C1137.89 83.9999 1150.72 87.2927 1162.25 93.8784C1173.77 100.464 1182.79 109.553 1189.31 121.147C1195.89 132.74 1199.19 145.637 1199.19 159.837C1199.19 174.038 1195.89 186.934 1189.31 198.528C1182.79 210.121 1173.77 219.211 1162.25 225.796C1150.72 232.382 1137.89 235.675 1123.76 235.675C1109.63 235.675 1096.8 232.382 1085.28 225.796C1073.82 219.211 1064.83 210.121 1058.32 198.528C1051.8 186.934 1048.54 174.038 1048.54 159.837C1048.54 145.637 1051.8 132.74 1058.32 121.147C1064.83 109.553 1073.82 100.464 1085.28 93.8784ZM1154.63 127.424C1146.4 118.712 1136.11 114.355 1123.76 114.355C1111.41 114.355 1101.12 118.712 1092.89 127.424C1084.66 136.067 1080.54 146.872 1080.54 159.837C1080.54 172.803 1084.66 183.642 1092.89 192.354C1101.12 201.066 1111.41 205.422 1123.76 205.422C1136.11 205.422 1146.4 201.066 1154.63 192.354C1162.86 183.642 1166.98 172.803 1166.98 159.837C1166.98 146.872 1162.86 136.067 1154.63 127.424Z" fill="#F16016"/>
<path d="M1046.49 86.0574V116.001H1003.27V233.616H972.092V116.001H929.08V86.0574H1046.49Z" fill="#F16016"/>
<path d="M882.148 86.0574H913.327V233.616H882.148V86.0574Z" fill="#F16016"/>
<path d="M870.731 233.616H832.761L799.421 177.33H783.471V233.616H752.293V86.0574H809.196C817.429 86.0574 825.112 88.0811 832.246 92.1285C839.381 96.1759 845.074 101.733 849.328 108.798C853.581 115.796 855.707 123.41 855.707 131.642C855.707 140.972 853.615 149.204 849.43 156.338C845.246 163.473 839.483 168.858 832.143 172.494L870.731 233.616ZM783.471 116.207V150.37H806.007C811.083 150.37 815.371 148.724 818.869 145.431C822.368 142.138 824.117 138.022 824.117 133.083C824.117 128.349 822.368 124.371 818.869 121.146C815.371 117.854 811.083 116.207 806.007 116.207H783.471Z" fill="#F16016"/>
<path d="M740.863 233.616H702.893L669.554 177.33H653.604V233.616H622.425V86.0574H679.329C687.561 86.0574 695.244 88.0811 702.379 92.1285C709.513 96.1759 715.207 101.733 719.46 108.798C723.713 115.796 725.84 123.41 725.84 131.642C725.84 140.972 723.748 149.204 719.563 156.338C715.378 163.473 709.616 168.858 702.276 172.494L740.863 233.616ZM653.604 116.207V150.37H676.139C681.216 150.37 685.503 148.724 689.002 145.431C692.5 142.138 694.25 138.022 694.25 133.083C694.25 128.349 692.5 124.371 689.002 121.146C685.503 117.854 681.216 116.207 676.139 116.207H653.604Z" fill="#F16016"/>
<path d="M512.938 86.0574H603.285V116.001H544.117V142.55H596.802V172.494H544.117V203.672H603.285V233.616H512.938V86.0574Z" fill="#F16016"/>
<path d="M497.409 86.0574V116.001H454.191V233.616H423.012V116.001H380V86.0574H497.409Z" fill="#F16016"/>
<path d="M57.0596 198.785L14.4915 226.609C24.4205 248.268 39.0435 267.317 57.0596 282.473V198.785Z" fill="#F16016"/>
<path d="M71.0596 293.011C74.6547 295.419 78.363 297.689 82.1601 299.805V182.389L71.0596 189.644V293.011Z" fill="#F16016"/>
<path d="M202.141 153.271L71.0596 88.561V172.927L96.1529 156.527V306.735C115.712 315.258 137.307 320 160.009 320C174.592 320 188.714 318.037 202.141 314.385V153.271Z" fill="#F16016"/>
<path d="M160.004 0C71.6363 0 0 71.6339 0 159.999C0 178.725 3.23159 196.692 9.13732 213.399L57.0618 182.078V66.0515L216.121 144.577V309.859C276.802 287.125 320 228.611 320 159.991C320 71.6339 248.364 0 160.004 0Z" fill="#F16016"/>
</svg>
